<mxfile host="app.diagrams.net" agent="Mozilla/5.0 (Windows NT 10.0; Win64; x64) AppleWebKit/537.36 (KHTML, like Gecko) Chrome/138.0.0.0 Safari/537.36 Edg/138.0.0.0" version="28.0.6">
  <diagram name="第 1 页" id="-XMRZMFo4FagcFxewAAf">
    <mxGraphModel dx="2798" dy="1118" grid="1" gridSize="10" guides="1" tooltips="1" connect="1" arrows="1" fold="1" page="1" pageScale="1" pageWidth="827" pageHeight="1169" math="0" shadow="0">
      <root>
        <mxCell id="0" />
        <mxCell id="1" parent="0" />
        <mxCell id="PpPzLQ96ZuGjznoMUcRZ-1" value="&lt;font&gt;功能对抗&lt;/font&gt;" style="rounded=0;whiteSpace=wrap;html=1;fontSize=18;fillColor=#d5e8d4;strokeColor=#82b366;" vertex="1" parent="1">
          <mxGeometry x="300" y="370" width="120" height="60" as="geometry" />
        </mxCell>
        <mxCell id="PpPzLQ96ZuGjznoMUcRZ-3" value="" style="rounded=0;whiteSpace=wrap;html=1;fontSize=18;fillColor=#f8cecc;strokeColor=#b85450;" vertex="1" parent="1">
          <mxGeometry x="139.5" y="430" width="450" height="490" as="geometry" />
        </mxCell>
        <mxCell id="PpPzLQ96ZuGjznoMUcRZ-4" value="检测层" style="text;html=1;align=center;verticalAlign=middle;resizable=0;points=[];autosize=1;strokeColor=none;fillColor=none;fontSize=18;" vertex="1" parent="1">
          <mxGeometry x="40" y="655" width="80" height="40" as="geometry" />
        </mxCell>
        <mxCell id="PpPzLQ96ZuGjznoMUcRZ-5" value="计算层" style="text;html=1;align=center;verticalAlign=middle;resizable=0;points=[];autosize=1;strokeColor=none;fillColor=none;fontSize=18;" vertex="1" parent="1">
          <mxGeometry x="40" y="955" width="80" height="40" as="geometry" />
        </mxCell>
        <mxCell id="PpPzLQ96ZuGjznoMUcRZ-6" value="" style="rounded=0;whiteSpace=wrap;html=1;fontSize=18;fillColor=#fff2cc;strokeColor=#d6b656;" vertex="1" parent="1">
          <mxGeometry x="139.5" y="920" width="450.5" height="90" as="geometry" />
        </mxCell>
        <mxCell id="PpPzLQ96ZuGjznoMUcRZ-9" value="数据访问" style="text;html=1;align=center;verticalAlign=middle;resizable=0;points=[];autosize=1;strokeColor=none;fillColor=none;fontSize=18;" vertex="1" parent="1">
          <mxGeometry x="145" y="475" width="100" height="40" as="geometry" />
        </mxCell>
        <mxCell id="PpPzLQ96ZuGjznoMUcRZ-12" value="DMA检测" style="rounded=1;whiteSpace=wrap;html=1;fontSize=18;" vertex="1" parent="1">
          <mxGeometry x="270" y="470" width="110" height="40" as="geometry" />
        </mxCell>
        <mxCell id="PpPzLQ96ZuGjznoMUcRZ-13" value="内存页蜜罐" style="rounded=1;whiteSpace=wrap;html=1;fontSize=18;" vertex="1" parent="1">
          <mxGeometry x="420" y="470" width="110" height="40" as="geometry" />
        </mxCell>
        <mxCell id="PpPzLQ96ZuGjznoMUcRZ-15" value="内核完整性检测" style="rounded=1;whiteSpace=wrap;html=1;fontSize=18;" vertex="1" parent="1">
          <mxGeometry x="420" y="630" width="110" height="40" as="geometry" />
        </mxCell>
        <mxCell id="PpPzLQ96ZuGjznoMUcRZ-16" value="外挂行为" style="text;html=1;align=center;verticalAlign=middle;resizable=0;points=[];autosize=1;strokeColor=none;fillColor=none;fontSize=18;" vertex="1" parent="1">
          <mxGeometry x="145" y="600" width="100" height="40" as="geometry" />
        </mxCell>
        <mxCell id="PpPzLQ96ZuGjznoMUcRZ-17" value="窗口劫持检测" style="rounded=1;whiteSpace=wrap;html=1;fontSize=18;" vertex="1" parent="1">
          <mxGeometry x="270" y="565" width="110" height="40" as="geometry" />
        </mxCell>
        <mxCell id="PpPzLQ96ZuGjznoMUcRZ-18" value="内核虚表劫持检测" style="rounded=1;whiteSpace=wrap;html=1;fontSize=18;" vertex="1" parent="1">
          <mxGeometry x="420" y="565" width="110" height="40" as="geometry" />
        </mxCell>
        <mxCell id="PpPzLQ96ZuGjznoMUcRZ-19" value="shellcode检测" style="rounded=1;whiteSpace=wrap;html=1;fontSize=18;" vertex="1" parent="1">
          <mxGeometry x="270" y="630" width="110" height="40" as="geometry" />
        </mxCell>
        <mxCell id="PpPzLQ96ZuGjznoMUcRZ-20" value="超时检测" style="text;html=1;align=center;verticalAlign=middle;resizable=0;points=[];autosize=1;strokeColor=none;fillColor=none;fontSize=18;" vertex="1" parent="1">
          <mxGeometry x="145" y="735" width="100" height="40" as="geometry" />
        </mxCell>
        <mxCell id="PpPzLQ96ZuGjznoMUcRZ-21" value="桥洞超时检测" style="rounded=1;whiteSpace=wrap;html=1;fontSize=18;" vertex="1" parent="1">
          <mxGeometry x="270" y="710" width="110" height="40" as="geometry" />
        </mxCell>
        <mxCell id="PpPzLQ96ZuGjznoMUcRZ-22" value="重放检测" style="rounded=1;whiteSpace=wrap;html=1;fontSize=18;" vertex="1" parent="1">
          <mxGeometry x="420" y="710" width="110" height="40" as="geometry" />
        </mxCell>
        <mxCell id="PpPzLQ96ZuGjznoMUcRZ-23" value="各组件心跳检测" style="rounded=1;whiteSpace=wrap;html=1;fontSize=18;" vertex="1" parent="1">
          <mxGeometry x="324.5" y="770" width="135.5" height="40" as="geometry" />
        </mxCell>
        <mxCell id="PpPzLQ96ZuGjznoMUcRZ-24" value="基础扫描" style="text;html=1;align=center;verticalAlign=middle;resizable=0;points=[];autosize=1;strokeColor=none;fillColor=none;fontSize=18;" vertex="1" parent="1">
          <mxGeometry x="145" y="845" width="100" height="40" as="geometry" />
        </mxCell>
        <mxCell id="PpPzLQ96ZuGjznoMUcRZ-26" value="进程" style="rounded=1;whiteSpace=wrap;html=1;fontSize=18;" vertex="1" parent="1">
          <mxGeometry x="260" y="845" width="50" height="40" as="geometry" />
        </mxCell>
        <mxCell id="PpPzLQ96ZuGjznoMUcRZ-27" value="内核模块" style="rounded=1;whiteSpace=wrap;html=1;fontSize=18;" vertex="1" parent="1">
          <mxGeometry x="500" y="845" width="75.5" height="40" as="geometry" />
        </mxCell>
        <mxCell id="PpPzLQ96ZuGjznoMUcRZ-28" value="符号文件" style="rounded=1;whiteSpace=wrap;html=1;fontSize=18;" vertex="1" parent="1">
          <mxGeometry x="410" y="845" width="75.5" height="40" as="geometry" />
        </mxCell>
        <mxCell id="PpPzLQ96ZuGjznoMUcRZ-29" value="线程" style="rounded=1;whiteSpace=wrap;html=1;fontSize=18;" vertex="1" parent="1">
          <mxGeometry x="331.75" y="845" width="65.5" height="40" as="geometry" />
        </mxCell>
        <mxCell id="PpPzLQ96ZuGjznoMUcRZ-31" value="外挂特征聚类" style="text;html=1;align=center;verticalAlign=middle;resizable=0;points=[];autosize=1;strokeColor=none;fillColor=none;fontSize=18;" vertex="1" parent="1">
          <mxGeometry x="160" y="945" width="130" height="40" as="geometry" />
        </mxCell>
        <mxCell id="PpPzLQ96ZuGjznoMUcRZ-32" value="用户行为审计" style="text;html=1;align=center;verticalAlign=middle;resizable=0;points=[];autosize=1;strokeColor=none;fillColor=none;fontSize=18;" vertex="1" parent="1">
          <mxGeometry x="299.25" y="945" width="130" height="40" as="geometry" />
        </mxCell>
        <mxCell id="PpPzLQ96ZuGjznoMUcRZ-33" value="用户数据审计" style="text;html=1;align=center;verticalAlign=middle;resizable=0;points=[];autosize=1;strokeColor=none;fillColor=none;fontSize=18;" vertex="1" parent="1">
          <mxGeometry x="445" y="945" width="130" height="40" as="geometry" />
        </mxCell>
        <mxCell id="PpPzLQ96ZuGjznoMUcRZ-34" value="证据层" style="text;html=1;align=center;verticalAlign=middle;resizable=0;points=[];autosize=1;strokeColor=none;fillColor=none;fontSize=18;" vertex="1" parent="1">
          <mxGeometry x="40" y="1055" width="80" height="40" as="geometry" />
        </mxCell>
        <mxCell id="PpPzLQ96ZuGjznoMUcRZ-35" value="" style="rounded=0;whiteSpace=wrap;html=1;fontSize=18;fillColor=#dae8fc;strokeColor=#6c8ebf;" vertex="1" parent="1">
          <mxGeometry x="139" y="1010" width="450.5" height="110" as="geometry" />
        </mxCell>
        <mxCell id="PpPzLQ96ZuGjznoMUcRZ-38" value="截图" style="text;html=1;align=center;verticalAlign=middle;resizable=0;points=[];autosize=1;strokeColor=none;fillColor=none;fontSize=18;" vertex="1" parent="1">
          <mxGeometry x="195" y="1030" width="60" height="40" as="geometry" />
        </mxCell>
        <mxCell id="PpPzLQ96ZuGjznoMUcRZ-39" value="样本特征" style="text;html=1;align=center;verticalAlign=middle;resizable=0;points=[];autosize=1;strokeColor=none;fillColor=none;fontSize=18;" vertex="1" parent="1">
          <mxGeometry x="305" y="1030" width="100" height="40" as="geometry" />
        </mxCell>
        <mxCell id="PpPzLQ96ZuGjznoMUcRZ-40" value="执行痕迹" style="text;html=1;align=center;verticalAlign=middle;resizable=0;points=[];autosize=1;strokeColor=none;fillColor=none;fontSize=18;" vertex="1" parent="1">
          <mxGeometry x="445" y="1030" width="100" height="40" as="geometry" />
        </mxCell>
        <mxCell id="PpPzLQ96ZuGjznoMUcRZ-41" value="replay重放" style="text;html=1;align=center;verticalAlign=middle;resizable=0;points=[];autosize=1;strokeColor=none;fillColor=none;fontSize=18;" vertex="1" parent="1">
          <mxGeometry x="170" y="1070" width="110" height="40" as="geometry" />
        </mxCell>
        <mxCell id="PpPzLQ96ZuGjznoMUcRZ-42" value="云查" style="text;html=1;align=center;verticalAlign=middle;resizable=0;points=[];autosize=1;strokeColor=none;fillColor=none;fontSize=18;" vertex="1" parent="1">
          <mxGeometry x="325" y="1070" width="60" height="40" as="geometry" />
        </mxCell>
        <mxCell id="PpPzLQ96ZuGjznoMUcRZ-43" value="活动日志" style="text;html=1;align=center;verticalAlign=middle;resizable=0;points=[];autosize=1;strokeColor=none;fillColor=none;fontSize=18;" vertex="1" parent="1">
          <mxGeometry x="445" y="1070" width="100" height="40" as="geometry" />
        </mxCell>
        <mxCell id="PpPzLQ96ZuGjznoMUcRZ-44" value="" style="rounded=0;whiteSpace=wrap;html=1;" vertex="1" parent="1">
          <mxGeometry x="-350" y="300" width="120" height="60" as="geometry" />
        </mxCell>
        <mxCell id="PpPzLQ96ZuGjznoMUcRZ-45" value="" style="rounded=0;whiteSpace=wrap;html=1;" vertex="1" parent="1">
          <mxGeometry x="770" y="1150" width="120" height="60" as="geometry" />
        </mxCell>
      </root>
    </mxGraphModel>
  </diagram>
</mxfile>
